<svg id="Capa_1" data-name="Capa 1" xmlns="http://www.w3.org/2000/svg" xmlns:xlink="http://www.w3.org/1999/xlink" viewBox="0 0 3040.14 298.99"><defs><style>.cls-1{fill:none;}.cls-2{fill:red;}.cls-3{clip-path:url(#clip-path);}.cls-4{fill:#ffc5c5;}</style><clipPath id="clip-path" transform="translate(160.35 0.28)"><rect class="cls-1" x="-0.34" y="-0.28" width="2880" height="305.19"/></clipPath></defs><path class="cls-2" d="M.36,246.19v-.53" transform="translate(160.35 0.28)"/><g class="cls-3"><rect class="cls-2" x="0.09" width="79.96" height="252.22"/><path class="cls-2" d="M-80.39,251.83c0,25.9-17.9,46.89-40,46.89s-40-21-40-46.89" transform="translate(160.35 0.28)"/><rect class="cls-4" x="80.05" width="79.96" height="252.22"/><path class="cls-4" d="M-.43,251.83c0,25.9-17.9,46.89-40,46.89s-40-21-40-46.89" transform="translate(160.35 0.28)"/><rect class="cls-2" x="160.1" width="79.96" height="252.22"/><path class="cls-2" d="M79.62,251.83c0,25.9-17.9,46.89-40,46.89s-40-21-40-46.89" transform="translate(160.35 0.28)"/><rect class="cls-4" x="240.06" width="79.96" height="252.22"/><path class="cls-4" d="M159.58,251.83c0,25.9-17.9,46.89-40,46.89s-40-21-40-46.89" transform="translate(160.35 0.28)"/><rect class="cls-2" x="320.1" width="79.96" height="252.22"/><path class="cls-2" d="M239.62,251.83c0,25.9-17.89,46.89-40,46.89s-40-21-40-46.89" transform="translate(160.35 0.28)"/><rect class="cls-4" x="400.06" width="79.96" height="252.22"/><path class="cls-4" d="M319.58,251.83c0,25.9-17.89,46.89-40,46.89s-40-21-40-46.89" transform="translate(160.35 0.28)"/><rect class="cls-2" x="480.11" width="79.96" height="252.22"/><path class="cls-2" d="M399.63,251.83c0,25.9-17.9,46.89-40,46.89s-40-21-40-46.89" transform="translate(160.35 0.28)"/><rect class="cls-4" x="560.07" width="79.96" height="252.22"/><path class="cls-4" d="M479.59,251.83c0,25.9-17.9,46.89-40,46.89s-40-21-40-46.89" transform="translate(160.35 0.28)"/><rect class="cls-2" x="640.12" width="79.96" height="252.22"/><path class="cls-2" d="M559.64,251.83c0,25.9-17.9,46.89-40,46.89s-40-21-40-46.89" transform="translate(160.35 0.28)"/><rect class="cls-4" x="720.08" width="79.96" height="252.22"/><path class="cls-4" d="M639.6,251.83c0,25.9-17.9,46.89-40,46.89s-40-21-40-46.89" transform="translate(160.35 0.28)"/><rect class="cls-2" x="800.13" width="79.96" height="252.22"/><path class="cls-2" d="M719.65,251.83c0,25.9-17.9,46.89-40,46.89s-40-21-40-46.89" transform="translate(160.35 0.28)"/><rect class="cls-4" x="880.09" width="79.96" height="252.22"/><path class="cls-4" d="M799.61,251.83c0,25.9-17.9,46.89-40,46.89s-40-21-40-46.89" transform="translate(160.35 0.28)"/><rect class="cls-2" x="960.13" width="79.96" height="252.22"/><path class="cls-2" d="M879.66,251.83c0,25.9-17.9,46.89-40,46.89s-40-21-40-46.89" transform="translate(160.35 0.28)"/><rect class="cls-4" x="1040.09" width="79.96" height="252.22"/><path class="cls-4" d="M959.61,251.83c0,25.9-17.89,46.89-40,46.89s-40-21-40-46.89" transform="translate(160.35 0.28)"/><rect class="cls-2" x="1120.14" width="79.96" height="252.22"/><path class="cls-2" d="M1039.66,251.83c0,25.9-17.9,46.89-40,46.89s-40-21-40-46.89" transform="translate(160.35 0.28)"/><rect class="cls-4" x="1200.1" width="79.96" height="252.22"/><path class="cls-4" d="M1119.62,251.83c0,25.9-17.9,46.89-40,46.89s-40-21-40-46.89" transform="translate(160.35 0.28)"/><rect class="cls-2" x="1280.15" width="79.96" height="252.22"/><path class="cls-2" d="M1199.67,251.83c0,25.9-17.9,46.89-40,46.89s-40-21-40-46.89" transform="translate(160.35 0.28)"/><rect class="cls-4" x="1360.11" width="79.96" height="252.22"/><path class="cls-4" d="M1279.63,251.83c0,25.9-17.9,46.89-40,46.89s-40-21-40-46.89" transform="translate(160.35 0.28)"/><rect class="cls-2" x="1440.16" width="79.96" height="252.22"/><path class="cls-2" d="M1359.68,251.83c0,25.9-17.9,46.89-40,46.89s-40-21-40-46.89" transform="translate(160.35 0.28)"/><rect class="cls-4" x="1520.12" width="79.96" height="252.22"/><path class="cls-4" d="M1439.64,251.83c0,25.9-17.9,46.89-40,46.89s-40-21-40-46.89" transform="translate(160.35 0.28)"/><rect class="cls-2" x="1600.16" width="79.96" height="252.22"/><path class="cls-2" d="M1519.69,251.83c0,25.9-17.9,46.89-40,46.89s-40-21-40-46.89" transform="translate(160.35 0.28)"/><rect class="cls-4" x="1680.12" width="79.96" height="252.22"/><path class="cls-4" d="M1599.65,251.83c0,25.9-17.9,46.89-40,46.89s-40-21-40-46.89" transform="translate(160.35 0.28)"/><rect class="cls-2" x="1760.17" width="79.96" height="252.22"/><path class="cls-2" d="M1679.69,251.83c0,25.9-17.9,46.89-40,46.89s-40-21-40-46.89" transform="translate(160.35 0.28)"/><rect class="cls-4" x="1840.13" width="79.96" height="252.22"/><path class="cls-4" d="M1759.65,251.83c0,25.9-17.9,46.89-40,46.89s-40-21-40-46.89" transform="translate(160.35 0.28)"/><rect class="cls-2" x="1920.18" width="79.96" height="252.22"/><path class="cls-2" d="M1839.7,251.83c0,25.9-17.9,46.89-40,46.89s-40-21-40-46.89" transform="translate(160.35 0.28)"/><rect class="cls-4" x="2000.14" width="79.96" height="252.22"/><path class="cls-4" d="M1919.66,251.83c0,25.9-17.9,46.89-40,46.89s-40-21-40-46.89" transform="translate(160.35 0.28)"/><rect class="cls-2" x="2080.19" width="79.96" height="252.22"/><path class="cls-2" d="M1999.71,251.83c0,25.9-17.9,46.89-40,46.89s-40-21-40-46.89" transform="translate(160.35 0.28)"/><rect class="cls-4" x="2160.15" width="79.96" height="252.22"/><path class="cls-4" d="M2079.67,251.83c0,25.9-17.9,46.89-40,46.89s-40-21-40-46.89" transform="translate(160.35 0.28)"/><rect class="cls-2" x="2240.19" width="79.96" height="252.22"/><path class="cls-2" d="M2159.72,251.83c0,25.9-17.9,46.89-40,46.89s-40-21-40-46.89" transform="translate(160.35 0.28)"/><rect class="cls-4" x="2320.15" width="79.96" height="252.22"/><path class="cls-4" d="M2239.68,251.83c0,25.9-17.9,46.89-40,46.89s-40-21-40-46.89" transform="translate(160.35 0.28)"/><rect class="cls-2" x="2400.2" width="79.96" height="252.22"/><path class="cls-2" d="M2319.72,251.83c0,25.9-17.9,46.89-40,46.89s-40-21-40-46.89" transform="translate(160.35 0.28)"/><rect class="cls-4" x="2480.16" width="79.96" height="252.22"/><path class="cls-4" d="M2399.68,251.83c0,25.9-17.9,46.89-40,46.89s-40-21-40-46.89" transform="translate(160.35 0.28)"/><rect class="cls-2" x="2560.21" width="79.96" height="252.22"/><path class="cls-2" d="M2479.73,251.83c0,25.9-17.9,46.89-40,46.89s-40-21-40-46.89" transform="translate(160.35 0.28)"/><rect class="cls-4" x="2640.17" width="79.96" height="252.22"/><path class="cls-4" d="M2559.69,251.83c0,25.9-17.9,46.89-40,46.89s-40-21-40-46.89" transform="translate(160.35 0.28)"/><rect class="cls-2" x="2720.22" width="79.96" height="252.22"/><path class="cls-2" d="M2639.74,251.83c0,25.9-17.9,46.89-40,46.89s-40-21-40-46.89" transform="translate(160.35 0.28)"/><rect class="cls-4" x="2800.18" width="79.96" height="252.22"/><path class="cls-4" d="M2719.7,251.83c0,25.9-17.9,46.89-40,46.89s-40-21-40-46.89" transform="translate(160.35 0.28)"/><rect class="cls-2" x="2880.22" width="79.96" height="252.22"/><path class="cls-2" d="M2799.75,251.83c0,25.9-17.9,46.89-40,46.89s-40-21-40-46.89" transform="translate(160.35 0.28)"/><rect class="cls-4" x="2960.18" width="79.96" height="252.22"/><path class="cls-4" d="M2879.71,251.83c0,25.9-17.9,46.89-40,46.89s-40-21-40-46.89" transform="translate(160.35 0.28)"/></g></svg>